<svg xmlns="http://www.w3.org/2000/svg" width="16" height="16" fill="none">
  <path fill="#101828" d="M11.53 8.381c-.49.996-1.156 1.988-1.837 2.878a30.003 30.003 0 0 1-2.068 2.41 30.002 30.002 0 0 1-2.068-2.41c-.68-.89-1.346-1.882-1.838-2.878-.496-1.006-.781-1.948-.781-2.756a4.687 4.687 0 1 1 9.374 0c0 .808-.285 1.75-.781 2.756ZM7.626 15s5.625-5.33 5.625-9.375a5.625 5.625 0 1 0-11.25 0C2 9.669 7.625 15 7.625 15Z"/>
  <path fill="#101828" d="M7.625 7.5a1.875 1.875 0 1 1 0-3.75 1.875 1.875 0 0 1 0 3.75Zm0 .938a2.813 2.813 0 1 0 0-5.626 2.813 2.813 0 0 0 0 5.626Z"/>
</svg>
